<?xml version="1.0" standalone="no"?><!DOCTYPE svg PUBLIC "-//W3C//DTD SVG 1.1//EN" "http://www.w3.org/Graphics/SVG/1.1/DTD/svg11.dtd"><svg t="1702087819033" class="icon" viewBox="0 0 1024 1024" version="1.1" xmlns="http://www.w3.org/2000/svg" p-id="9468" xmlns:xlink="http://www.w3.org/1999/xlink" width="200" height="200"><path d="M308.958295 375.934247c-53.30411 0-84.164384-44.887671-84.164383-84.164384 0-36.471233 30.860274-84.164384 84.164383-84.164384s84.164384 44.887671 84.164384 84.164384c0 42.082192-30.860274 84.164384-84.164384 84.164384z m-2.805479-117.830137c-16.832877 0-30.860274 14.027397-30.860274 30.860274 0 16.832877 14.027397 30.860274 30.860274 30.860274 16.832877 0 30.860274-14.027397 30.860274-30.860274 0-16.832877-14.027397-30.860274-30.860274-30.860274z m684.536986 384.350685L631.588432 1004.361644c-11.221918 11.221918-28.054795 19.638356-44.887671 19.638356-16.832877 0-33.665753-5.610959-44.887671-19.638356L19.993912 479.736986c-11.221918-11.221918-19.638356-28.054795-19.638356-44.887671V75.747945C0.355556 39.276712 28.41035 11.221918 64.881583 11.221918h359.10137c16.832877 0 33.665753 5.610959 44.887671 19.638356l521.819178 521.819178c25.249315 25.249315 25.249315 64.526027 0 89.775343zM421.177473 67.331507H56.465145v364.712329l533.041095 533.041096 364.712329-364.712329-533.041096-533.041096z"  p-id="9469"></path></svg>