<?xml version="1.0" standalone="no"?><!DOCTYPE svg PUBLIC "-//W3C//DTD SVG 1.1//EN" "http://www.w3.org/Graphics/SVG/1.1/DTD/svg11.dtd"><svg t="1702087717446" class="icon" viewBox="0 0 1024 1024" version="1.1" xmlns="http://www.w3.org/2000/svg" p-id="1520" xmlns:xlink="http://www.w3.org/1999/xlink" width="200" height="200"><path d="M950.857143 470.235429h-95.817143V157.549714c0-41.398857-26.331429-69.778286-50.468571-69.778285H219.428571c-24.137143 0-50.468571 28.379429-50.468571 69.778285v708.900572c0 41.398857 26.331429 69.778286 50.468571 69.778285h218.624V1024H219.428571c-80.822857 0-146.285714-70.509714-146.285714-157.549714V157.549714C73.142857 70.509714 138.605714 0 219.428571 0h585.142858c80.822857 0 146.285714 70.509714 146.285714 157.549714v312.685715z"  p-id="1521"></path><path d="M667.209143 910.189714l248.100571-254.025143-62.098285-62.025142-248.905143 254.902857-4.242286 62.683428 67.145143-1.462857z m31.451428 72.484572l-177.005714 3.876571 11.483429-169.325714L852.626286 490.057143l165.522285 165.522286-319.488 327.094857z"  p-id="1522"></path><path d="M292.571429 219.428571m43.885714 0l351.085714 0q43.885714 0 43.885714 43.885715l0 0q0 43.885714-43.885714 43.885714l-351.085714 0q-43.885714 0-43.885714-43.885714l0 0q0-43.885714 43.885714-43.885715Z"  p-id="1523"></path><path d="M292.571429 438.857143m43.885714 0l204.8 0q43.885714 0 43.885714 43.885714l0 0q0 43.885714-43.885714 43.885714l-204.8 0q-43.885714 0-43.885714-43.885714l0 0q0-43.885714 43.885714-43.885714Z"  p-id="1524"></path><path d="M292.571429 658.285714m43.885714 0l58.514286 0q43.885714 0 43.885714 43.885715l0 0q0 43.885714-43.885714 43.885714l-58.514286 0q-43.885714 0-43.885714-43.885714l0 0q0-43.885714 43.885714-43.885715Z"  p-id="1525"></path></svg>